<?xml version="1.0" encoding="UTF-8" standalone="no"?>
<!DOCTYPE svg PUBLIC "-//W3C//DTD SVG 1.1//EN"
 "http://www.w3.org/Graphics/SVG/1.1/DTD/svg11.dtd">
<!-- Generated by graphviz version 2.43.0 (0)
 -->
<!-- Title: G Pages: 1 -->
<svg width="300pt" height="383pt"
 viewBox="0.00 0.00 300.00 383.00" xmlns="http://www.w3.org/2000/svg" xmlns:xlink="http://www.w3.org/1999/xlink">
<g id="graph0" class="graph" transform="scale(1 1) rotate(0) translate(4 379)">
<title>G</title>
<polygon fill="white" stroke="transparent" points="-4,4 -4,-379 296,-379 296,4 -4,4"/>
<g id="clust1" class="cluster">
<title>cluster_1</title>
<polygon fill="none" stroke="blue" points="40,-244 40,-367 250,-367 250,-244 40,-244"/>
<text text-anchor="middle" x="145" y="-351.8" font-family="Times,serif" font-size="14.00">loop &#45;1</text>
</g>
<g id="clust2" class="cluster">
<title>cluster_2</title>
<polygon fill="none" stroke="blue" points="8,-8 8,-236 284,-236 284,-8 8,-8"/>
<text text-anchor="middle" x="146" y="-220.8" font-family="Times,serif" font-size="14.00">loop 1</text>
</g>
<!-- 106102872080544 -->
<g id="node1" class="node">
<title>106102872080544</title>
<polygon fill="none" stroke="red" points="120,-252.5 120,-335.5 242,-335.5 242,-252.5 120,-252.5"/>
<text text-anchor="start" x="128" y="-320.3" font-family="Times,serif" font-size="14.00">bb0:</text>
<text text-anchor="start" x="128" y="-305.3" font-family="Times,serif" font-size="14.00"> i0: const int 1</text>
<text text-anchor="start" x="128" y="-290.3" font-family="Times,serif" font-size="14.00"> i1: const int 2</text>
<text text-anchor="start" x="128" y="-275.3" font-family="Times,serif" font-size="14.00"> i2: param int0</text>
<text text-anchor="start" x="128" y="-260.3" font-family="Times,serif" font-size="14.00"> i3: b bb1</text>
</g>
<!-- 106102872080672 -->
<g id="node2" class="node">
<title>106102872080672</title>
<polygon fill="none" stroke="black" points="16,-136.5 16,-204.5 276,-204.5 276,-136.5 16,-136.5"/>
<text text-anchor="start" x="24" y="-189.3" font-family="Times,serif" font-size="14.00">bb1:</text>
<text text-anchor="start" x="24" y="-174.3" font-family="Times,serif" font-size="14.00"> i4: phi int [0: bb0 i1]; [1: bb2 i9]; </text>
<text text-anchor="start" x="24" y="-159.3" font-family="Times,serif" font-size="14.00"> i5: phi int [0: bb0 i0]; [1: bb2 i7]; </text>
<text text-anchor="start" x="24" y="-144.3" font-family="Times,serif" font-size="14.00"> i6: b.if gt i4, i2 F: bb2 T: bb3</text>
</g>
<!-- 106102872080544&#45;&gt;106102872080672 -->
<g id="edge1" class="edge">
<title>106102872080544&#45;&gt;106102872080672</title>
<path fill="none" stroke="black" d="M169.25,-252.2C165.77,-240.14 161.96,-226.89 158.44,-214.68"/>
<polygon fill="black" stroke="black" points="161.7,-213.36 155.57,-204.72 154.97,-215.3 161.7,-213.36"/>
</g>
<!-- 106102872080800 -->
<g id="node3" class="node">
<title>106102872080800</title>
<polygon fill="none" stroke="black" points="56.5,-16.5 56.5,-99.5 235.5,-99.5 235.5,-16.5 56.5,-16.5"/>
<text text-anchor="start" x="64.5" y="-84.3" font-family="Times,serif" font-size="14.00">bb2:</text>
<text text-anchor="start" x="64.5" y="-69.3" font-family="Times,serif" font-size="14.00"> i7: mul int int i5 int i4</text>
<text text-anchor="start" x="64.5" y="-54.3" font-family="Times,serif" font-size="14.00"> i8: const int 1</text>
<text text-anchor="start" x="64.5" y="-39.3" font-family="Times,serif" font-size="14.00"> i9: add int int i4 int i8</text>
<text text-anchor="start" x="64.5" y="-24.3" font-family="Times,serif" font-size="14.00"> i10: b bb1</text>
</g>
<!-- 106102872080672&#45;&gt;106102872080800 -->
<g id="edge2" class="edge">
<title>106102872080672&#45;&gt;106102872080800</title>
<path fill="none" stroke="black" d="M139.75,-136.35C139.35,-127.94 139.19,-118.72 139.27,-109.66"/>
<polygon fill="black" stroke="black" points="142.77,-109.62 139.47,-99.56 135.77,-109.49 142.77,-109.62"/>
</g>
<!-- 106102872080928 -->
<g id="node4" class="node">
<title>106102872080928</title>
<polygon fill="none" stroke="black" points="48,-276 48,-312 102,-312 102,-276 48,-276"/>
<text text-anchor="start" x="56" y="-290.3" font-family="Times,serif" font-size="14.00">bb3:</text>
</g>
<!-- 106102872080672&#45;&gt;106102872080928 -->
<g id="edge3" class="edge">
<title>106102872080672&#45;&gt;106102872080928</title>
<path fill="none" stroke="black" d="M126.67,-204.59C115.15,-224.29 100.75,-248.94 90.08,-267.2"/>
<polygon fill="black" stroke="black" points="87.05,-265.45 85.02,-275.85 93.09,-268.98 87.05,-265.45"/>
</g>
<!-- 106102872080800&#45;&gt;106102872080672 -->
<g id="edge4" class="edge">
<title>106102872080800&#45;&gt;106102872080672</title>
<path fill="none" stroke="black" d="M152.53,-99.56C152.8,-108.25 152.82,-117.48 152.61,-126.27"/>
<polygon fill="black" stroke="black" points="149.11,-126.23 152.25,-136.35 156.1,-126.48 149.11,-126.23"/>
</g>
</g>
</svg>
